<svg xmlns="http://www.w3.org/2000/svg" xmlns:xlink="http://www.w3.org/1999/xlink" width="200" zoomAndPan="magnify" viewBox="0 0 150 44.999999" height="60" preserveAspectRatio="xMidYMid meet" version="1.2"><defs/><g id="bfcef82b36"><g style="fill:#48ab3a;fill-opacity:1;"><g transform="translate(0.00000166667, 35.27504)"><path style="stroke:none" d="M 5.65625 0 L 2.28125 0 L 2.28125 -17.609375 L 6.28125 -17.609375 L 13.34375 -6.265625 L 13.65625 -6.3125 L 13.65625 -17.609375 L 17.015625 -17.609375 L 17.015625 0 L 13.4375 0 L 5.96875 -12.125 L 5.65625 -12.078125 Z M 5.65625 0 "/></g><g transform="translate(19.306499, 35.27504)"><path style="stroke:none" d="M 8.546875 0.25 C 7.078125 0.25 5.804688 -0.0820312 4.734375 -0.75 C 3.660156 -1.425781 2.832031 -2.4375 2.25 -3.78125 C 1.675781 -5.132812 1.390625 -6.8125 1.390625 -8.8125 C 1.390625 -10.8125 1.738281 -12.488281 2.4375 -13.84375 C 3.132812 -15.195312 4.101562 -16.203125 5.34375 -16.859375 C 6.582031 -17.523438 8.019531 -17.859375 9.65625 -17.859375 C 11.34375 -17.859375 12.78125 -17.546875 13.96875 -16.921875 C 15.15625 -16.296875 15.992188 -15.363281 16.484375 -14.125 L 13.9375 -12.59375 L 13.640625 -12.59375 C 13.273438 -13.382812 12.765625 -13.957031 12.109375 -14.3125 C 11.453125 -14.675781 10.632812 -14.859375 9.65625 -14.859375 C 8.144531 -14.859375 6.984375 -14.378906 6.171875 -13.421875 C 5.367188 -12.460938 4.96875 -10.925781 4.96875 -8.8125 C 4.96875 -6.675781 5.34375 -5.125 6.09375 -4.15625 C 6.851562 -3.195312 7.96875 -2.71875 9.4375 -2.71875 C 10.707031 -2.71875 11.640625 -3.003906 12.234375 -3.578125 C 12.835938 -4.148438 13.140625 -5 13.140625 -6.125 L 13.140625 -6.890625 L 8.96875 -6.890625 L 8.96875 -9.71875 L 16.59375 -9.71875 L 16.59375 0 L 13.28125 0 L 13.28125 -2.359375 L 13.015625 -2.390625 C 12.660156 -1.546875 12.113281 -0.894531 11.375 -0.4375 C 10.644531 0.0195312 9.703125 0.25 8.546875 0.25 Z M 8.546875 0.25 "/></g><g transform="translate(37.673567, 35.27504)"><path style="stroke:none" d="M 9.59375 0.25 C 7.988281 0.25 6.566406 -0.078125 5.328125 -0.734375 C 4.097656 -1.390625 3.132812 -2.394531 2.4375 -3.75 C 1.738281 -5.101562 1.390625 -6.789062 1.390625 -8.8125 C 1.390625 -10.820312 1.738281 -12.503906 2.4375 -13.859375 C 3.132812 -15.210938 4.097656 -16.21875 5.328125 -16.875 C 6.566406 -17.53125 7.988281 -17.859375 9.59375 -17.859375 C 11.207031 -17.859375 12.628906 -17.53125 13.859375 -16.875 C 15.085938 -16.226562 16.050781 -15.222656 16.75 -13.859375 C 17.445312 -12.503906 17.796875 -10.820312 17.796875 -8.8125 C 17.796875 -6.789062 17.445312 -5.097656 16.75 -3.734375 C 16.050781 -2.378906 15.085938 -1.375 13.859375 -0.71875 C 12.628906 -0.0703125 11.207031 0.25 9.59375 0.25 Z M 9.59375 -2.765625 C 11.09375 -2.765625 12.234375 -3.242188 13.015625 -4.203125 C 13.804688 -5.171875 14.203125 -6.707031 14.203125 -8.8125 C 14.203125 -10.914062 13.804688 -12.445312 13.015625 -13.40625 C 12.234375 -14.375 11.09375 -14.859375 9.59375 -14.859375 C 8.09375 -14.859375 6.945312 -14.375 6.15625 -13.40625 C 5.363281 -12.445312 4.96875 -10.914062 4.96875 -8.8125 C 4.96875 -6.707031 5.363281 -5.171875 6.15625 -4.203125 C 6.945312 -3.242188 8.09375 -2.765625 9.59375 -2.765625 Z M 9.59375 -2.765625 "/></g></g></g></svg>